<svg xmlns="http://www.w3.org/2000/svg" fill-rule="evenodd" stroke-linejoin="round" stroke-miterlimit="2" clip-rule="evenodd" viewBox="0 0 64 64" id="SkillshareSocialMediaTutorialCollaboration">
  <path fill="none" d="M0 0h64v64H0z"></path>
  <path d="M32.001 5c-14.902 0-27 12.098-27 27s12.098 27 27 27 27-12.098 27-27-12.098-27-27-27Zm2 23 5-8h5l-7 12 7 12h-5l-5-8v8h-4V20h4v8Zm-15 6a7 7 0 1 1 7-7h-4a3.001 3.001 0 0 0-6 0c0 1.656 1.344 3 3 3a7 7 0 1 1-7 7h4a3.001 3.001 0 0 0 6 0c0-1.656-1.344-3-3-3Zm30 6A2 2 0 1 1 49 44.001 2 2 0 0 1 49 40Z" fill="#34a853" class="color000000 svgShape"></path>
</svg>
